<svg width="297" height="131" viewBox="0 0 297 131" fill="none" xmlns="http://www.w3.org/2000/svg">
<mask id="mask0_287_177" style="mask-type:alpha" maskUnits="userSpaceOnUse" x="0" y="0" width="74" height="76">
<path d="M0 0H73.1867V75.4815H0V0Z" fill="white"/>
</mask>
<g mask="url(#mask0_287_177)">
<path fill-rule="evenodd" clip-rule="evenodd" d="M72.5633 34.358H38.1012V44.6326H62.5426C61.3349 59.0397 49.4039 65.1843 38.1427 65.1843C23.7342 65.1843 11.1623 53.7949 11.1623 37.8304C11.1623 22.2798 23.1467 10.3034 38.1739 10.3034C49.7679 10.3034 56.5998 17.7287 56.5998 17.7287L63.7598 10.2793C63.7598 10.2793 54.57 -0.000122044 37.8083 -0.000122044C16.464 -0.000923997 -0.0478516 18.0984 -0.0478516 37.6468C-0.0478516 56.803 15.4846 75.4813 38.3519 75.4813C58.4645 75.4813 73.1868 61.6396 73.1868 41.1698C73.1868 36.8512 72.5625 34.3556 72.5625 34.3556L72.5633 34.358Z" fill="#7BA4EC"/>
</g>
<path fill-rule="evenodd" clip-rule="evenodd" d="M101.68 36.2987C108.558 36.2987 115.074 41.911 115.074 50.9544C115.074 59.8067 108.585 65.5791 101.649 65.5791C94.0266 65.5791 88.0136 59.417 88.0136 50.8843C88.0136 42.5341 93.9524 36.2987 101.68 36.2987ZM101.54 26.8297C87.5557 26.8297 77.5332 37.8661 77.5332 50.7377C77.5332 63.7997 87.2542 75.0409 101.705 75.0409C114.787 75.0409 125.503 64.9488 125.503 51.0182C125.503 35.0524 113.038 26.8297 101.54 26.8297Z" fill="#D84037"/>
<path fill-rule="evenodd" clip-rule="evenodd" d="M153.796 36.2987C160.673 36.2987 167.19 41.911 167.19 50.9544C167.19 59.8067 160.701 65.5791 153.764 65.5791C146.143 65.5791 140.13 59.417 140.13 50.8843C140.13 42.5341 146.068 36.2987 153.796 36.2987ZM153.657 26.8297C139.672 26.8297 129.649 37.8661 129.649 50.7377C129.649 63.7997 139.37 75.0409 153.822 75.0409C166.903 75.0409 177.62 64.9488 177.62 51.0182C177.62 35.0524 165.153 26.8297 153.657 26.8297Z" fill="#F1B628"/>
<path fill-rule="evenodd" clip-rule="evenodd" d="M207.001 36.4054C213.347 36.4054 219.863 41.9018 219.863 51.2885C219.863 60.8302 213.361 66.0876 206.861 66.0876C199.961 66.0876 193.541 60.4039 193.541 51.3797C193.541 42.0011 200.209 36.4054 207.001 36.4054H207.001ZM206.065 26.8297C193.123 26.8297 182.949 38.3296 182.949 51.2368C182.949 65.9399 194.743 75.6891 205.842 75.6891C212.704 75.6891 216.353 72.926 219.047 69.7535V74.5708C219.047 82.9983 214.003 88.0449 206.39 88.0449C199.036 88.0449 195.347 82.4968 194.064 79.3485L184.811 83.2728C188.093 90.3146 194.702 97.6585 206.467 97.6585C219.335 97.6585 229.143 89.4361 229.143 72.1912V28.2985H219.047V32.4359C215.944 29.043 211.698 26.8305 206.065 26.8305V26.8297Z" fill="#7BA4EC"/>
<path fill-rule="evenodd" clip-rule="evenodd" d="M274.661 36.0905C279.086 36.0905 282.271 38.43 283.623 41.2343L261.936 50.2468C261.001 43.2697 267.65 36.0905 274.661 36.0905ZM274.238 26.8297C261.957 26.8297 251.647 36.5434 251.647 50.878C251.647 66.0452 263.14 75.0409 275.417 75.0409C285.665 75.0409 291.953 69.4664 295.707 64.4731L287.335 58.9344C285.162 62.2872 281.53 65.5628 275.468 65.5628C268.66 65.5628 265.529 61.8558 263.591 58.265L296.064 44.8673L294.379 40.9406C291.242 33.2519 283.923 26.8313 274.239 26.8313L274.238 26.8297Z" fill="#D84037"/>
<path fill-rule="evenodd" clip-rule="evenodd" d="M236.842 73.8507H247.502V2.42676H236.842V73.8507Z" fill="#319F4F"/>
<path d="M4.4115 129.854V120.384H7.19791L13.4673 129.854H17.7796V129.651L11.278 120.08L11.3112 119.911C12.8592 119.483 14.1473 118.637 15.1757 117.375C16.204 116.112 16.7181 114.669 16.7181 113.046C16.7181 111.626 16.3809 110.352 15.7064 109.224C15.0319 108.097 14.1086 107.218 12.9366 106.587C11.7645 105.955 10.4708 105.64 9.05551 105.64H0.696289V129.854H4.4115ZM8.956 116.867H4.4115V109.191H9.08868C9.8848 109.191 10.5703 109.377 11.1453 109.749C11.7203 110.121 12.1626 110.6 12.4722 111.186C12.7818 111.772 12.9366 112.381 12.9366 113.012C12.9366 114.139 12.5496 115.064 11.7756 115.785C11.0016 116.507 10.0617 116.867 8.956 116.867ZM26.7378 130.395C28.529 130.395 30.066 129.989 31.3486 129.177C32.6312 128.366 33.6706 127.25 34.4667 125.829L31.3818 124.341C30.9174 125.175 30.3037 125.835 29.5408 126.32C28.7778 126.804 27.8767 127.047 26.8373 127.047C25.5325 127.047 24.3881 126.613 23.404 125.745C22.4199 124.877 21.8616 123.642 21.7289 122.042H34.6989C34.7653 121.568 34.7985 121.174 34.7985 120.858C34.7985 119.19 34.4723 117.69 33.8199 116.36C33.1675 115.03 32.2166 113.982 30.9671 113.215C29.7177 112.448 28.2415 112.065 26.5387 112.065C24.9023 112.065 23.4427 112.482 22.1601 113.316C20.8775 114.151 19.8768 115.272 19.1581 116.681C18.4394 118.09 18.08 119.618 18.08 121.264C18.08 123 18.4504 124.561 19.1913 125.948C19.9321 127.334 20.9604 128.422 22.2762 129.211C23.592 130 25.0792 130.395 26.7378 130.395ZM31.0832 119.201H21.8947C22.2043 118.006 22.7627 117.053 23.5699 116.343C24.3771 115.633 25.3667 115.278 26.5387 115.278C27.5118 115.278 28.3355 115.481 29.01 115.887C29.6845 116.292 30.1876 116.794 30.5193 117.392C30.851 117.989 31.039 118.592 31.0832 119.201ZM45.4483 129.854L52.4807 112.606H48.5001L43.7234 125.051H43.5907L38.9136 112.606H34.8335L41.7995 129.854H45.4483ZM55.866 110.104C56.5516 110.104 57.1321 109.861 57.6076 109.377C58.083 108.892 58.3207 108.3 58.3207 107.601C58.3207 106.902 58.083 106.31 57.6076 105.826C57.1321 105.341 56.5516 105.099 55.866 105.099C55.1805 105.099 54.6 105.341 54.1245 105.826C53.6491 106.31 53.4114 106.902 53.4114 107.601C53.4114 108.3 53.6491 108.892 54.1245 109.377C54.6 109.861 55.1805 110.104 55.866 110.104ZM57.6905 129.854V112.606H54.0416V129.854H57.6905ZM68.7384 130.395C70.5297 130.395 72.0667 129.989 73.3493 129.177C74.6319 128.366 75.6713 127.25 76.4674 125.829L73.3825 124.341C72.9181 125.175 72.3044 125.835 71.5414 126.32C70.7785 126.804 69.8773 127.047 68.838 127.047C67.5332 127.047 66.3888 126.613 65.4047 125.745C64.4206 124.877 63.8622 123.642 63.7295 122.042H76.6996C76.7659 121.568 76.7991 121.174 76.7991 120.858C76.7991 119.19 76.4729 117.69 75.8206 116.36C75.1682 115.03 74.2173 113.982 72.9678 113.215C71.7183 112.448 70.2422 112.065 68.5394 112.065C66.9029 112.065 65.4434 112.482 64.1608 113.316C62.8781 114.151 61.8775 115.272 61.1587 116.681C60.44 118.09 60.0807 119.618 60.0807 121.264C60.0807 123 60.4511 124.561 61.1919 125.948C61.9328 127.334 62.9611 128.422 64.2769 129.211C65.5927 130 67.0799 130.395 68.7384 130.395ZM73.0839 119.201H63.8954C64.205 118.006 64.7634 117.053 65.5706 116.343C66.3777 115.633 67.3673 115.278 68.5394 115.278C69.5124 115.278 70.3362 115.481 71.0107 115.887C71.6852 116.292 72.1883 116.794 72.52 117.392C72.8517 117.989 73.0397 118.592 73.0839 119.201ZM86.0226 129.854L89.8705 117.476H89.9701L93.8511 129.854H97.699L103.106 112.606H99.2249L95.8082 124.95H95.6756L91.894 112.606H88.1456L84.3309 124.95H84.1982L80.7815 112.606H76.8341L82.2411 129.854H86.0226ZM110.571 130.395C111.854 130.395 113.026 130.169 114.088 129.718C115.149 129.267 115.984 128.63 116.592 127.808C117.2 126.985 117.504 126.032 117.504 124.95C117.504 123.687 117.079 122.622 116.227 121.754C115.376 120.886 114.121 120.238 112.462 119.81L109.974 119.167C109.156 118.942 108.537 118.665 108.117 118.338C107.697 118.012 107.486 117.589 107.486 117.07C107.486 116.529 107.763 116.09 108.316 115.751C108.869 115.413 109.554 115.244 110.372 115.244C112.075 115.244 113.247 115.909 113.889 117.239L117.073 115.819C116.542 114.602 115.68 113.672 114.486 113.029C113.291 112.386 111.909 112.065 110.339 112.065C109.167 112.065 108.084 112.274 107.088 112.691C106.093 113.108 105.303 113.7 104.717 114.466C104.131 115.233 103.838 116.123 103.838 117.138C103.838 118.446 104.28 119.528 105.164 120.384C106.049 121.241 107.166 121.839 108.515 122.177L110.538 122.684C111.644 122.955 112.462 123.27 112.993 123.631C113.524 123.992 113.789 124.488 113.789 125.119C113.789 125.773 113.479 126.263 112.86 126.59C112.241 126.917 111.478 127.08 110.571 127.08C109.643 127.08 108.819 126.844 108.1 126.37C107.381 125.897 106.823 125.209 106.425 124.307L103.174 125.762C103.683 127.114 104.556 128.225 105.795 129.093C107.033 129.961 108.625 130.395 110.571 130.395Z" fill="#E6E6E6"/>
<path fill-rule="evenodd" clip-rule="evenodd" d="M143.173 125.745L134.208 130.458L135.92 120.475L128.667 113.406L138.69 111.949L143.173 102.867L147.655 111.949L157.678 113.406L150.425 120.475L152.137 130.458L143.173 125.745Z" fill="#F1B628"/>
<path fill-rule="evenodd" clip-rule="evenodd" d="M177.396 125.745L168.431 130.458L170.143 120.475L162.891 113.406L172.914 111.949L177.396 102.867L181.879 111.949L191.902 113.406L184.649 120.475L186.361 130.458L177.396 125.745Z" fill="#F1B628"/>
<path fill-rule="evenodd" clip-rule="evenodd" d="M212.364 125.745L203.399 130.458L205.111 120.475L197.858 113.406L207.881 111.949L212.364 102.867L216.846 111.949L226.869 113.406L219.617 120.475L221.329 130.458L212.364 125.745Z" fill="#F1B628"/>
<path fill-rule="evenodd" clip-rule="evenodd" d="M245.844 125.745L236.879 130.458L238.592 120.475L231.339 113.406L241.362 111.949L245.844 102.867L250.327 111.949L260.35 113.406L253.097 120.475L254.809 130.458L245.844 125.745Z" fill="#F1B628"/>
<path fill-rule="evenodd" clip-rule="evenodd" d="M280.812 125.745L271.847 130.458L273.559 120.475L266.307 113.406L276.33 111.949L280.812 102.867L285.295 111.949L295.318 113.406L288.065 120.475L289.777 130.458L280.812 125.745Z" fill="#F1B628"/>
</svg>
