<svg width="12" height="20" viewBox="0 0 12 20" fill="none" xmlns="http://www.w3.org/2000/svg">
<path d="M5.99982 0C2.76822 0 0.13916 2.62906 0.13916 5.86066C0.13916 6.74196 0.330056 7.58895 0.706394 8.37867C0.713969 8.39556 0.721924 8.41215 0.730408 8.42874L5.15844 17.0023C5.321 17.317 5.6456 17.5147 5.99974 17.5147C6.35396 17.5147 6.67856 17.3171 6.84105 17.0023L11.2679 8.43109C11.2755 8.41632 11.2826 8.4014 11.2895 8.38632C11.6683 7.59433 11.8603 6.74477 11.8603 5.86066C11.8605 2.62906 9.23142 0 5.99982 0ZM5.99982 8.92825C4.30835 8.92825 2.93223 7.55214 2.93223 5.86066C2.93223 4.16926 4.30835 2.79314 5.99982 2.79314C7.6913 2.79314 9.06742 4.16926 9.06742 5.86066C9.06742 7.55214 7.6913 8.92825 5.99982 8.92825Z" fill="#E9222E"/>
<path d="M8.25745 18.8637H3.74246C3.42862 18.8637 3.17432 19.118 3.17432 19.4319C3.17432 19.7457 3.42862 20 3.74246 20H8.25745C8.5713 20 8.8256 19.7457 8.8256 19.4319C8.8256 19.118 8.57122 18.8637 8.25745 18.8637Z" fill="#E9222E"/>
</svg>
