<svg id="Layer_1" data-name="Layer 1" xmlns="http://www.w3.org/2000/svg" viewBox="0 0 98.68 87.48"><defs><style>.cls-1{fill:#f1c40f;stroke:#a67c52;stroke-miterlimit:10;stroke-width:0.05px;}.cls-2{fill:#454336;}</style></defs><title>Pricetag</title><path class="cls-1" d="M92.42,9.82S55.06,3.69,51.29,6.6l-47,36.31A8.64,8.64,0,0,0,2.73,55L29.67,89.89a8.63,8.63,0,0,0,12.1,1.56l47-36.31C92.55,52.23,99.06,20,99.06,20A7.56,7.56,0,0,0,92.42,9.82ZM88.48,23.26A4.26,4.26,0,1,1,92.74,19,4.26,4.26,0,0,1,88.48,23.26Z" transform="translate(-0.9 -5.79)"/><path class="cls-2" d="M44.87,50.6A22.75,22.75,0,0,0,48.61,49a9.2,9.2,0,0,0,1.78-1.25,18.64,18.64,0,0,0,2.75-3.39,12.4,12.4,0,0,0,.72-1.57l.24-.58A5.32,5.32,0,0,0,54.43,41c0-.16.1-.86.12-1.12l6.14.05,2.6-4.34-9.09-.07a5.51,5.51,0,0,0-.27-.69,10.93,10.93,0,0,0-1.15-1.86l-.15-.22a8.32,8.32,0,0,0-1-1.06l9.12.07,2.34-4.34-21.55-.16c-.26,0-.52,0-.78,0H37.12l-2.15,0-3.39,4.33,9.81.08.76.09.45.09A7.77,7.77,0,0,1,45.53,33h0c.56.38.76.61,1.31,1l.28.28a4,4,0,0,1,.82.94l.13.24-13.18-.1-3.68,4.33,17.52.13a7.67,7.67,0,0,1-.15,1l-.13.55a5.7,5.7,0,0,1-.4.86,5.28,5.28,0,0,1-1,1.33,8.68,8.68,0,0,1-2.31,1.7,13,13,0,0,1-2.34,1.07c-.34.12-.7.23-1,.31a20.26,20.26,0,0,1-3.94.58H33.14l0,4.94,17,19.06h7.57l-17-19.68c.56-.09,1.12-.18,1.64-.3S44.27,50.8,44.87,50.6Z" transform="translate(-0.9 -5.79)"/></svg>